<svg id="Capa_1" enable-background="new 0 0 512 512" height="512" viewBox="0 0 512 512" width="512" xmlns="http://www.w3.org/2000/svg"><g><g><g><path d="m199.223 305.306h38.098v68.091c0 4.512 3.021 8.465 7.376 9.649.872.237 1.753.352 2.625.352 3.48 0 6.794-1.825 8.622-4.937l65.456-111.457c1.815-3.092 1.837-6.919.056-10.032-1.781-3.112-5.093-5.032-8.679-5.032h-38.097v-68.09c0-4.512-3.021-8.465-7.376-9.649-4.354-1.185-8.961.693-11.247 4.585l-65.457 111.456c-1.815 3.092-1.837 6.919-.056 10.032 1.781 3.112 5.093 5.032 8.679 5.032zm55.457-84.682v41.316c0 5.523 4.477 10 10 10h30.628l-37.987 64.683v-41.317c0-5.523-4.478-10-10-10h-30.628z"/><path d="m374.685 288.626h10.592v10.592c0 5.523 4.478 10 10 10s10-4.477 10-10v-10.592h10.593c5.522 0 10-4.477 10-10s-4.478-10-10-10h-10.593v-10.593c0-5.523-4.478-10-10-10s-10 4.477-10 10v10.593h-10.592c-5.522 0-10 4.477-10 10s4.477 10 10 10z"/><path d="m96.131 288.624h41.185c5.523 0 10-4.477 10-10s-4.477-10-10-10h-41.185c-5.522 0-10 4.477-10 10s4.477 10 10 10z"/><path d="m502 152.974c5.522 0 10-4.477 10-10v-52.278c0-5.523-4.478-10-10-10h-46.909v-35.247c0-5.523-4.477-10-10-10h-99.629c-5.522 0-10 4.477-10 10v35.247h-34.256c-5.522 0-10 4.477-10 10s4.478 10 10 10h190.794v32.278h-472v-32.278h190.794c5.523 0 10-4.477 10-10s-4.477-10-10-10h-34.256v-35.247c0-5.523-4.478-10-10-10h-99.629c-5.523 0-10 4.477-10 10v35.247h-46.909c-5.523 0-10 4.477-10 10v52.278c0 5.523 4.477 10 10 10h19.743v251.298h-19.743c-5.523 0-10 4.477-10 10v52.279c0 5.523 4.477 10 10 10h492c5.522 0 10-4.477 10-10v-52.279c0-5.523-4.478-10-10-10h-19.743v-251.298zm-146.538-72.278v-25.247h79.629v25.247zm-278.553-25.247h79.629v25.247h-79.629zm415.091 401.102h-472v-32.279h472zm-29.743-52.279h-412.514v-251.298h412.514z"/><path d="m246.95 94.52c1.579 3.791 5.434 6.317 9.555 6.174 4.116-.143 7.818-2.885 9.144-6.783 1.343-3.947.024-8.464-3.255-11.046-3.287-2.588-7.927-2.866-11.491-.661-4.102 2.54-5.809 7.861-3.953 12.316z"/></g></g></g></svg>