<?xml version="1.0" encoding="iso-8859-1"?>
<!-- Generator: Adobe Illustrator 19.0.0, SVG Export Plug-In . SVG Version: 6.00 Build 0)  -->
<svg version="1.1" id="Capa_1" xmlns="http://www.w3.org/2000/svg" xmlns:xlink="http://www.w3.org/1999/xlink" x="0px" y="0px"
	 viewBox="0 0 458.2 458.2" style="enable-background:new 0 0 458.2 458.2;" xml:space="preserve">
<path style="fill:#FDC75B;" d="M413.75,371.2v51c0,14.4-11.7,26.1-26.1,26.1h-21.8c-14.4,0-26.1-11.7-26.1-26.1v-24.4v-0.4h47.9
	C402.05,397.3,413.75,385.6,413.75,371.2z"/>
<path style="fill:#ED664C;" d="M413.75,364.7v6.5c0,14.4-11.7,26.1-26.1,26.1h-47.9h-221.2h-47.9c-14.4,0-26.1-11.7-26.1-26.1v-17.4
	v-47.6c0-11.5,5.1-22.4,13.8-29.9l14.9-12.6h182.9h96.7h37.4v0.4l11.2,10.6c7.8,7.4,12.3,17.7,12.3,28.5V364.7z M375.45,356v-42.7
	h-62.3V356H375.45z M145.15,356v-42.7h-62.3V356H145.15z"/>
<g>
	<path style="fill:#FDC75B;" d="M361.75,183.2l29.8,80.5h-1.3h-37.4c0-26.6-21.8-48.3-48.3-48.3s-48.4,21.7-48.4,48.2H73.25h-1.3
		l29.8-80.5c3.8-10.2,13.6-17.1,24.5-17.1h210.9C348.15,166.1,357.95,172.9,361.75,183.2z"/>
	<path style="fill:#FDC75B;" d="M391.35,48.8l-38.9-3.2l-0.2,0.3c-8.5,11.2-8.4,26.7,0.2,37.8l0,0l38.7-3c-6.9,27.5-28.1,41-53.3,41
		c-23.1,0.2-43-15.1-51.5-33.2h-112.3c-7.3,24.3-28.4,38.5-53.6,38.5s-46.5-14-53.6-38.5l38.9,3.2l0.2-0.3
		c8.5-11.2,8.4-26.7-0.2-37.8l0,0l-38.7,3c6.4-27.9,27.7-41.4,52.9-41.4c22.9,0,43,15.1,51.7,33.4h112.6
		c7.3-24.3,28.4-38.5,53.5-38.5C362.95,10.4,384.25,24.3,391.35,48.8z"/>
	<rect x="313.15" y="313.3" style="fill:#FDC75B;" width="62.3" height="42.7"/>
	<path style="fill:#FDC75B;" d="M352.75,263.6h-96.6c0-26.6,21.8-48.3,48.3-48.3S352.75,237.1,352.75,263.6z"/>
	<rect x="82.85" y="313.3" style="fill:#FDC75B;" width="62.3" height="42.7"/>
	<path style="fill:#FDC75B;" d="M118.55,397.7v24.4c0,14.4-11.7,26.1-26.1,26.1h-21.8c-14.4,0-26.1-11.7-26.1-26.1v-51
		c0,14.4,11.7,26.1,26.1,26.1h47.9V397.7z"/>
</g>
<path d="M70.65,458.2h21.8c19.9,0,35.7-16.2,35.7-36.1v-14.9h202v14.9c0,19.9,15.8,36.1,35.7,36.1h21.8c19.9,0,36.5-16.2,36.5-36.1
	v-51v-68c0-13.5-5.8-26.5-15.6-35.8l-7.4-6.9c0-0.1-0.1-0.2-0.2-0.4l-29.8-80.3c-5.2-14.1-18.9-23.5-33.9-23.5h-211
	c-15,0-28.6,9.4-33.9,23.5l-29.5,79.6l-11.2,9.3c-11,9.4-17.6,23-17.6,37.5v65v51C34.15,442,50.75,458.2,70.65,458.2z M108.15,422.1
	c0,8.9-6.8,16.1-15.7,16.1h-21.8c-8.9,0-16.5-7.2-16.5-16.1v-18.6c5,2.4,10.7,3.7,16.5,3.7h37.5V422.1z M387.65,438.2h-21.8
	c-8.9,0-15.7-7.2-15.7-16.1v-14.9h37.5c5.8,0,11.5-1.3,16.5-3.7v18.6C404.15,431,396.55,438.2,387.65,438.2z M111.15,186.5
	c2.3-6.3,8.4-10.3,15.1-10.3h210.9c6.7,0,12.8,4,15.1,10.3l24.9,66.7h-15.3c-4.8-27-28.7-48.3-57.5-48.3s-52.6,21.3-57.3,48.3H86.35
	L111.15,186.5z M341.45,253.2h-74c4.4-16,19.3-28.3,37-28.3S337.05,237.2,341.45,253.2z M54.15,306.2c0-8.6,4-16.9,10.5-22.5
	l12.3-10.5h308.8l9,8.5c5.8,5.5,9.3,13.4,9.3,21.4v68c0,8.9-7.6,16-16.5,16h-317c-8.9,0-16.5-7.1-16.5-16v-64.9H54.15z"/>
<path d="M155.15,313.2c0-5.5-4.5-10-10-10h-62c-5.5,0-10,4.5-10,10v43c0,5.5,4.5,10,10,10h62c5.5,0,10-4.5,10-10V313.2z
	 M93.15,323.2h42v23h-42V323.2z"/>
<path d="M385.15,313.2c0-5.5-4.5-10-10-10h-62c-5.5,0-10,4.5-10,10v43c0,5.5,4.5,10,10,10h62c5.5,0,10-4.5,10-10V313.2z
	 M323.15,323.2h42v23h-42V323.2z"/>
<path d="M189.35,357.2h79.7c5.5,0,10-4.5,10-10s-4.5-10-10-10h-79.7c-5.5,0-10,4.5-10,10S183.75,357.2,189.35,357.2z"/>
<path d="M189.35,332.2h79.7c5.5,0,10-4.5,10-10s-4.5-10-10-10h-79.7c-5.5,0-10,4.5-10,10S183.75,332.2,189.35,332.2z"/>
<path d="M67.85,78.5c-3.3-0.3-6.5,1.1-8.6,3.6s-2.8,6-1.9,9.1c8,27.7,32.8,45.6,63.2,45.6c27.8,0,50.4-14.6,60.6-38.6h99.2
	c10.5,18,30.9,33.3,56.8,33.3c0.2,0,0.4,0.1,0.6,0.1c14.9,0,28.6-4.2,39.4-12.1c11.6-8.5,19.8-21.1,23.6-36.4c0.8-3.1,0-6.4-2.1-8.9
	s-5.2-3.8-8.4-3.5l-32.6,2.5c-2.4-5.4-2.4-11.7,0-17.1l32.8,2.7c3.3,0.3,6.5-1.1,8.6-3.6s2.8-6,1.9-9.1c-8-27.6-32.7-45.8-62.9-46.1
	c-27.9,0-50.4,14.2-60.6,38.2h-99.7c-12.1-20-34.6-33.2-57.7-33.2c-15,0-28.6,4.3-39.4,12.3c-11.6,8.6-19.6,21.4-23.2,37
	c-0.7,3.1,0.1,6.4,2.2,8.8s5.2,3.7,8.4,3.5l32.6-2.5c2.4,5.4,2.5,11.7,0,17.1L67.85,78.5z M114.05,47.8c-0.4-0.5-0.8-1.1-1.3-1.5
	c-2-1.9-4.8-2.8-7.6-2.6l-23,1.8c7.5-13,20.7-20.2,38-20.2c17.4,0,34.9,11.2,42.7,27.5c1.7,3.5,5.2,5.5,9,5.5h112.6
	c4.4,0,8.3-2.7,9.6-6.9c5.8-19.3,22.7-31.2,43.9-31.2c15.5,0.1,28.6,6.5,36.8,17.3l-21.4-1.8c-3.5-0.3-6.8,1.3-8.9,4.1l-0.2,0.2
	c-11.1,14.7-11,35,0.1,49.6c0.4,0.5,0.8,1.1,1.3,1.5c2,1.9,4.8,2.9,7.6,2.6l22.6-1.8c-7.7,12.7-21,19.8-38.1,19.8
	c-0.1,0-0.3,0-0.4,0c-20,0-35.7-14.3-41.9-27.5c-1.6-3.5-5.2-5.9-9.1-5.9h-112.2c-4.4,0-8.3,3-9.6,7.2c-5.8,19.3-22.7,31.4-44,31.4
	c-15.6,0-28.7-6.2-36.9-17l21.4,1.8c3.5,0.3,6.8-1.2,8.9-4l0.2-0.2C125.25,82.7,125.15,62.4,114.05,47.8z"/>
<g>
</g>
<g>
</g>
<g>
</g>
<g>
</g>
<g>
</g>
<g>
</g>
<g>
</g>
<g>
</g>
<g>
</g>
<g>
</g>
<g>
</g>
<g>
</g>
<g>
</g>
<g>
</g>
<g>
</g>
</svg>
