<?xml version="1.0" encoding="iso-8859-1"?>
<!-- Generator: Adobe Illustrator 19.0.0, SVG Export Plug-In . SVG Version: 6.00 Build 0)  -->
<svg version="1.1" id="Capa_1" xmlns="http://www.w3.org/2000/svg" xmlns:xlink="http://www.w3.org/1999/xlink" x="0px" y="0px"
	 viewBox="0 0 480 480" style="enable-background:new 0 0 480 480;" xml:space="preserve">
<path style="fill:#DE4C3C;" d="M56,344H24v-72L8,248v-24l16-24h32V344z"/>
<path style="fill:#D64333;" d="M56,256h32v32H56V256z"/>
<path style="fill:#4398D1;" d="M160,88h160v32H160V88z"/>
<g>
	<path style="fill:#3E8CC7;" d="M280,88h40v32h-40V88z"/>
	<path style="fill:#3E8CC7;" d="M224,120h32v32h-32V120z"/>
</g>
<path style="fill:#4398D1;" d="M344,200l-32-48H168l-32,48H88v144h48l32,48h232v-48V200H344z"/>
<path style="fill:#3E8CC7;" d="M344,200l-14.12-21.176c-43.386,76.22-104.946,140.529-179.2,187.2L168,392h232V200H344z"/>
<path style="fill:#4398D1;" d="M472,360l-16,16h-24V216h24l16,16V360z"/>
<path style="fill:#3E8CC7;" d="M400,264h32v48h-32V264z"/>
<path style="fill:#FDB62F;" d="M304,264h-48l16-72l-96,88h48l-16,72L304,264z"/>
<path style="fill:#2A7DB8;" d="M360,200h16v192h-16V200z"/>
<g>
	<path style="fill:#60AADB;" d="M112,256h16v64h-16V256z"/>
	<path style="fill:#60AADB;" d="M112,224h16v16h-16V224z"/>
</g>
<path d="M461.656,210.344c-1.5-1.5-3.534-2.344-5.656-2.344h-24c-4.418,0-8,3.582-8,8v40h-16v-56c0-4.418-3.582-8-8-8h-51.72
	l-29.6-44.44c-1.489-2.232-3.997-3.568-6.68-3.56h-48v-16h56c4.418,0,8-3.582,8-8V88c0-4.418-3.582-8-8-8H160c-4.418,0-8,3.582-8,8
	v32c0,4.418,3.582,8,8,8h56v16h-48c-2.674,0-5.172,1.335-6.656,3.56L131.72,192H88c-4.418,0-8,3.582-8,8v48H64v-48
	c0-4.418-3.582-8-8-8H24c-2.674,0-5.172,1.335-6.656,3.56l-16,24C0.47,220.876,0.002,222.42,0,224v24
	c0.002,1.58,0.47,3.124,1.344,4.44L16,274.4V344c0,4.418,3.582,8,8,8h32c4.418,0,8-3.582,8-8v-48h16v48c0,4.418,3.582,8,8,8h43.72
	l29.6,44.44c1.489,2.232,3.997,3.568,6.68,3.56h232c4.418,0,8-3.582,8-8v-72h16v56c0,4.418,3.582,8,8,8h24
	c2.122,0,4.156-0.844,5.656-2.344l16-16c1.5-1.5,2.344-3.534,2.344-5.656V232c0-2.122-0.844-4.156-2.344-5.656L461.656,210.344z
	 M48,256v80H32v-64c-0.002-1.58-0.47-3.124-1.344-4.44L16,245.6v-19.2L28.28,208H48V256z M80,280H64v-16h16V280z M168,112V96h144v16
	H168z M248,128v16h-16v-16H248z M360,384H172.28l-29.6-44.44c-1.489-2.232-3.997-3.568-6.68-3.56H96V208h40
	c2.674,0,5.172-1.335,6.656-3.56L172.28,160h135.44l29.6,44.44c1.489,2.232,3.997,3.568,6.68,3.56h16V384z M392,264v120h-16V208h16
	V264z M424,304h-16v-32h16V304z M464,356.688L452.688,368H440V224h12.688L464,235.312V356.688z"/>
<path d="M304,256h-38.024l13.832-62.264c0.958-4.313-1.761-8.586-6.074-9.545c-2.55-0.567-5.216,0.147-7.142,1.913l-96,88
	c-3.256,2.986-3.475,8.047-0.489,11.303C171.619,287.06,173.758,288,176,288h38.024l-13.832,62.264
	c-0.958,4.313,1.761,8.586,6.074,9.545c2.55,0.567,5.216-0.147,7.142-1.913l96-88c3.256-2.986,3.475-8.047,0.489-11.303
	C308.381,256.94,306.242,256,304,256L304,256z M221.32,328.936l10.488-47.2c0.959-4.313-1.76-8.587-6.073-9.545
	c-0.57-0.127-1.151-0.191-1.735-0.191h-27.432l62.112-56.936l-10.488,47.2c-0.959,4.313,1.76,8.587,6.073,9.545
	c0.57,0.127,1.151,0.191,1.735,0.191h27.432L221.32,328.936z"/>
<path d="M112,256h16v64h-16V256z"/>
<path d="M112,224h16v16h-16V224z"/>
<g>
</g>
<g>
</g>
<g>
</g>
<g>
</g>
<g>
</g>
<g>
</g>
<g>
</g>
<g>
</g>
<g>
</g>
<g>
</g>
<g>
</g>
<g>
</g>
<g>
</g>
<g>
</g>
<g>
</g>
</svg>
