<?xml version="1.0" encoding="iso-8859-1"?>
<!-- Generator: Adobe Illustrator 19.0.0, SVG Export Plug-In . SVG Version: 6.00 Build 0)  -->
<svg version="1.1" id="Capa_1" xmlns="http://www.w3.org/2000/svg" xmlns:xlink="http://www.w3.org/1999/xlink" x="0px" y="0px"
	 viewBox="0 0 480.2 480.2" style="enable-background:new 0 0 480.2 480.2;" xml:space="preserve">
<g>
	<path style="fill:#FDC75B;" d="M410.35,109v330.4c0,17.3-14,31.3-31.3,31.3h-277.8c-17.3,0-31.3-14-31.3-31.3V109
		c0-17.3,14-31.3,31.3-31.3h55.2h1.1v33.9h164.6V77.7h56.9C396.25,77.7,410.35,91.7,410.35,109z M378.05,261.3v-19.9
		c0-8.1-4.7-15.4-12.1-18.8l-25.7-11.7l-22.1-35.2c-5-8-13.8-12.9-23.3-12.9h-79.5c-8.6,0-16.6,4-21.8,10.8l-28.5,37.4l-47.6,13
		c-8.9,2.4-15.2,10.6-15.2,19.9v17.4c0,11.4,9.2,20.6,20.6,20.6h9c1.2,14.2,13.1,25.4,27.7,25.4s26.5-11.2,27.7-25.4h0.4h101.5h0.5
		c1.2,14.2,13.1,25.4,27.7,25.4s26.5-11.2,27.7-25.5l1.8,0.1h10.6C368.85,281.9,378.05,272.7,378.05,261.3z M213.55,428.1v-83.2
		h-86.2v83.2H213.55z"/>
	<path style="fill:#FDC75B;" d="M345.15,279.5c0,0.8,0,1.5-0.1,2.3c-1.1,14.3-13.1,25.5-27.7,25.5s-26.5-11.2-27.7-25.4
		c-0.1-0.8-0.1-1.6-0.1-2.4c0-15.4,12.4-27.8,27.8-27.8C332.65,251.7,345.15,264.2,345.15,279.5z"/>
</g>
<g>
	<path style="fill:#ED664C;" d="M322.15,77.7v33.9h-164.5V77.7V62c0-11.5,9.3-20.9,20.9-20.9h22.5c4.2-17.8,19.3-31.3,38.6-31.3
		s35,13.6,38.6,31.3h23c11.5,0,20.9,9.3,20.9,20.9V77.7z"/>
	<path style="fill:#ED664C;" d="M289.55,279.5c0,0.8,0,1.6,0.1,2.4h-0.5h-101.4h-0.4c0.1-0.8,0.1-1.6,0.1-2.4
		c0-15.4-12.5-27.8-27.8-27.8c-15.4,0-27.8,12.5-27.8,27.8c0,0.8,0,1.6,0.1,2.4h-9c-11.4,0-20.6-9.2-20.6-20.6v-17.4
		c0-9.3,6.2-17.4,15.2-19.9l47.6-13l28.5-37.4c5.2-6.8,13.3-10.8,21.8-10.8h79.5c9.5,0,18.2,4.9,23.3,12.9l22.1,35.3l25.7,11.7
		c7.4,3.3,12.1,10.7,12.1,18.8v19.8c0,11.4-9.2,20.6-20.6,20.6h-10.6l-1.8-0.1c0.1-0.8,0.1-1.5,0.1-2.3c0-15.4-12.4-27.8-27.8-27.8
		C301.95,251.7,289.55,264.2,289.55,279.5z"/>
	<rect x="127.35" y="344.8" style="fill:#ED664C;" width="86.2" height="83.2"/>
</g>
<path style="fill:#FDC75B;" d="M131.85,281.9c-0.1-0.8-0.1-1.6-0.1-2.4c0-15.4,12.4-27.8,27.8-27.8c15.3,0,27.8,12.5,27.8,27.8
	c0,0.8,0,1.6-0.1,2.4c-1.2,14.2-13.1,25.4-27.7,25.4S133.05,296.2,131.85,281.9z"/>
<path d="M379.05,67.3h-46.9V62c0-17-13.9-30.7-30.9-30.7h-15.5c-7.3-19-25.5-31.3-46.1-31.3c-20.4,0-38.3,12.3-45.9,31.3h-15.2
	c-17,0-30.4,13.7-30.4,30.7v5.3h-46.9c-22.7,0-41.1,18.9-41.1,41.7v330.4c0,22.8,18.4,40.8,41.1,40.8h277.7
	c22.8,0,41.1-18.1,41.1-40.8V109C420.15,86.2,401.75,67.3,379.05,67.3z M168.15,62c0-6,4.4-10.7,10.4-10.7h22.5
	c4.6,0,8.7-3.3,9.7-7.8c3.3-14.1,14.9-23.6,28.9-23.6c13.9,0,26,9.9,28.8,23.4c1,4.6,5,8,9.8,8h23c6,0,10.9,4.7,10.9,10.7v39.3h-144
	V62z M400.15,439.5c0,11.8-9.4,20.8-21.1,20.8h-277.8c-11.8,0-21.1-9.1-21.1-20.8V109c0-11.8,9.4-21.7,21.1-21.7h46.9v24.3
	c0,5.5,4,9.7,9.5,9.7h164.5c5.5,0,10-4.2,10-9.7V87.3h46.9c11.8,0,21.1,10,21.1,21.7V439.5z"/>
<path d="M223.15,345.3c0-5.5-4.5-10-10-10h-86c-5.5,0-10,4.5-10,10v83c0,5.5,4.5,10,10,10h86c5.5,0,10-4.5,10-10V345.3z
	 M203.15,418.3h-66v-63h66V418.3z"/>
<path d="M148.95,395.6l11.8,9.4c1.8,1.5,4,2.2,6.2,2.2c2.8,0,5.6-1.2,7.5-3.4l18.7-21.5c3.6-4.2,3.2-10.5-0.9-14.1
	c-4.2-3.6-10.5-3.2-14.1,0.9l-12.5,14.2l-4.3-3.4c-4.3-3.4-10.6-2.7-14.1,1.6C143.85,385.9,144.65,392.2,148.95,395.6z"/>
<path d="M249.15,375.3h62.1c5.5,0,10-4.5,10-10s-4.5-10-10-10h-62.1c-5.5,0-10,4.5-10,10S243.55,375.3,249.15,375.3z"/>
<path d="M352.95,397.3h-103.8c-5.5,0-10,4.5-10,10s4.5,10,10,10h103.9c5.5,0,10-4.5,10-10S358.55,397.3,352.95,397.3z"/>
<path d="M370.15,213.6l-23-10.4l-20.6-32.6c-6.9-11-18.8-17.3-31.8-17.3h-79.5c-11.6,0-22.8,5.3-29.8,14.5l-26.3,34.6l-44.4,12.1
	c-13.3,3.6-22.6,15.7-22.6,29.5v17.3c0,16.9,13.8,31,30.7,31h1c5.2,14,19.4,25.4,35.7,25.4s30.5-11.4,35.7-25.4h86.4
	c5.2,14,19.4,25.4,35.7,25.4c16.3,0,30.5-11.4,35.7-25.4h4.5c16.9,0,30.7-14.1,30.7-31v-19.9
	C388.15,229.5,381.05,218.6,370.15,213.6z M177.35,280.9c0,0.1,0,0.1,0,0.2c-0.8,9.1-8.5,16.3-17.7,16.3s-17-7.1-17.7-16.2
	c0-0.1,0-0.1,0-0.2c0-0.4-0.1-0.8-0.1-1.4c0-9.8,8-17.8,17.8-17.8s17.8,8,17.8,17.8C177.35,280.1,177.35,280.5,177.35,280.9z
	 M335.05,280.9v0.1c-0.7,9.2-8.5,16.3-17.7,16.3s-17-7.1-17.7-16.3c0-0.1,0-0.1,0-0.2c0-0.4-0.1-0.8-0.1-1.3c0-9.8,8-17.8,17.8-17.8
	s17.8,8,17.8,17.8C335.15,280,335.05,280.5,335.05,280.9z M368.15,261.3c0,5.8-4.8,11-10.7,11h-3.1c-3.5-18-18.8-30.2-37-30.2
	s-33.5,12.2-37,30.2h-83.7c-3.5-18-18.8-30.4-37-30.4s-33.5,12.9-37.1,30.1c-5.7-0.2-10.3-4.9-10.3-10.7v-17.4c0-4.8,3.3-9,7.8-10.2
	l47.7-13c2.1-0.6,4-1.8,5.3-3.6l28.5-37.2c3.3-4.3,8.5-6.6,13.9-6.6h79.5c6.1,0,11.6,2.8,14.8,8l22.1,35.2c1,1.7,2.5,2.9,4.3,3.7
	l25.7,11.7c3.8,1.7,6.3,5.5,6.3,9.6L368.15,261.3L368.15,261.3z"/>
<g>
</g>
<g>
</g>
<g>
</g>
<g>
</g>
<g>
</g>
<g>
</g>
<g>
</g>
<g>
</g>
<g>
</g>
<g>
</g>
<g>
</g>
<g>
</g>
<g>
</g>
<g>
</g>
<g>
</g>
</svg>
