<?xml version="1.0" encoding="iso-8859-1"?>
<!-- Generator: Adobe Illustrator 19.0.0, SVG Export Plug-In . SVG Version: 6.00 Build 0)  -->
<svg version="1.1" id="Capa_1" xmlns="http://www.w3.org/2000/svg" xmlns:xlink="http://www.w3.org/1999/xlink" x="0px" y="0px"
	 viewBox="0 0 480.449 480.449" style="enable-background:new 0 0 480.449 480.449;" xml:space="preserve">
<g>
	<g>
		<path d="M379.124,67.347h-46.9v-5.3c-0.1-17-13.9-30.8-30.9-30.7h-15.5c-10-25.4-38.7-37.9-64.1-27.9c-12.8,5-22.9,15.1-27.9,27.9
			h-15.2c-16.8,0-30.4,13.6-30.4,30.4c0,0.1,0,0.2,0,0.4v5.3h-46.9c-22.8,0-41.1,18.9-41.1,41.7v330.4c0,22.5,18.2,40.8,40.8,40.9
			c0.1,0,0.2,0,0.4,0h277.7c22.5,0.2,41-17.9,41.1-40.5c0-0.1,0-0.2,0-0.4v-330.5C420.224,86.247,401.824,67.347,379.124,67.347z
			 M168.224,62.047c-0.2-5.7,4.3-10.5,10-10.7c0.1,0,0.3,0,0.4,0h22.4c4.7,0,8.7-3.3,9.7-7.8c3.3-14.1,14.9-23.6,28.9-23.6
			c13.9,0,25.9,9.8,28.8,23.4c1,4.7,5,8,9.8,8h23c6-0.1,10.9,4.7,10.9,10.7v39.3h-143.9V62.047z M400.224,439.447
			c0,11.5-9.3,20.8-20.7,20.9c-0.1,0-0.3,0-0.4,0h-277.8c-11.5,0.2-21-9-21.1-20.5c0-0.1,0-0.3,0-0.4v-330.4
			c0-11.8,9.4-21.7,21.1-21.7h46.9v24.3c-0.2,5.1,3.8,9.5,9,9.7c0.2,0,0.4,0,0.5,0h164.5c5.4,0.2,9.9-4.1,10-9.5c0-0.1,0-0.1,0-0.2
			v-24.3h46.9c11.8,0,21.1,10,21.1,21.7V439.447z"/>
	</g>
</g>
<g>
	<g>
		<path d="M213.224,335.347h-86c-5.5,0-10,4.5-10,10v83c0,5.5,4.5,10,10,10h86c5.5,0,10-4.5,10-10v-83
			C223.224,339.847,218.724,335.347,213.224,335.347z M203.224,418.347h-66v-63h66V418.347z"/>
	</g>
</g>
<g>
	<g>
		<path d="M192.024,368.247c-4.1-3.5-10.3-3.1-13.9,0.9l-12.5,14.2l-4.3-3.4c-4.3-3.5-10.6-2.8-14.1,1.5c-3.3,4.4-2.6,10.7,1.8,14.2
			l11.8,9.4c4.2,3.3,10.2,2.8,13.8-1.2l18.6-21.5C196.824,378.147,196.224,371.847,192.024,368.247z"/>
	</g>
</g>
<g>
	<g>
		<path d="M311.324,355.347h-62.1c-5.5,0-10,4.5-10,10s4.4,10,10,10h62.1c5.5,0,10-4.5,10-10S316.824,355.347,311.324,355.347z"/>
	</g>
</g>
<g>
	<g>
		<path d="M353.024,397.347h-103.8c-5.5,0-10,4.5-10,10s4.5,10,10,10h103.9c5.5,0,10-4.5,10-10S358.624,397.347,353.024,397.347z"/>
	</g>
</g>
<g>
	<g>
		<path d="M370.224,213.647l-23-10.4l-20.5-32.6c-6.9-10.9-18.9-17.5-31.8-17.3h-79.5c-11.7-0.1-22.7,5.3-29.8,14.5l-26.4,34.6
			l-44.4,12.1c-13.3,3.6-22.6,15.7-22.6,29.4v17.4c0,16.9,13.8,31,30.7,31h1c5.1,14,19.2,25.4,35.7,25.4s30.6-11.4,35.7-25.4h86.3
			c5.1,14,19.2,25.4,35.7,25.4s30.6-11.4,35.7-25.4h4.5c16.9,0,30.7-14.1,30.7-31v-19.8
			C388.224,229.547,381.124,218.647,370.224,213.647z M159.624,297.347c-9.8,0-17.8-8-17.8-17.8s8-17.8,17.8-17.8s17.8,8,17.8,17.8
			C177.424,289.447,169.424,297.347,159.624,297.347z M317.424,297.347c-9.8,0-17.8-8-17.8-17.8s8-17.8,17.8-17.8s17.8,8,17.8,17.8
			C335.124,289.447,327.224,297.347,317.424,297.347z M357.524,272.347h-3.1c-3.5-18-18.8-30.2-37-30.2s-33.6,12.2-37.1,30.2h-83.7
			c-3.3-17.8-19-30.6-37-30.4c-17.9,0-33.4,12.5-37.1,30.1c-5.7-0.2-10.3-4.9-10.3-10.7v-17.4c0-4.8,3.2-9,7.8-10.2l47.7-13
			c2.1-0.6,4-1.8,5.3-3.6l28.5-37.2c3.3-4.3,8.5-6.7,13.9-6.6h79.5c6-0.1,11.6,2.9,14.8,8l22.1,35.2c1,1.6,2.6,2.9,4.3,3.7
			l25.7,11.6c3.8,1.7,6.2,5.5,6.2,9.6l0.1,19.9C368.124,267.247,363.524,272.147,357.524,272.347z"/>
	</g>
</g>
<g>
</g>
<g>
</g>
<g>
</g>
<g>
</g>
<g>
</g>
<g>
</g>
<g>
</g>
<g>
</g>
<g>
</g>
<g>
</g>
<g>
</g>
<g>
</g>
<g>
</g>
<g>
</g>
<g>
</g>
</svg>
