<?xml version="1.0" encoding="iso-8859-1"?>
<!-- Generator: Adobe Illustrator 19.0.0, SVG Export Plug-In . SVG Version: 6.00 Build 0)  -->
<svg version="1.1" id="Capa_1" xmlns="http://www.w3.org/2000/svg" xmlns:xlink="http://www.w3.org/1999/xlink" x="0px" y="0px"
	 viewBox="0 0 424.088 424.088" style="enable-background:new 0 0 424.088 424.088;" xml:space="preserve">
<path style="fill:#ED664C;" d="M253.444,210.488c-9.2-9.4-16.8-20.1-22.5-31.9c-8.1-16.6-12.6-35.1-12.6-54.3v-67l86.3-47.3
	l88.8,47.3v65.7c0,24.9-7.5,48.5-20.6,68.2c-11.7,17.6-28,32.2-47.6,42c-2.4,1.2-4.9,2.3-7.4,3.4l-13.5,5.8l-12-5.2
	C277.444,230.788,264.344,221.588,253.444,210.488z"/>
<path style="fill:#FDC75B;" d="M352.844,346.488v44.5c0,12.6-10.2,22.8-22.8,22.8h-19c-12.6,0-22.8-10.2-22.8-22.8v-21.3v-0.4h41.8
	C342.644,369.288,352.844,359.088,352.844,346.488z"/>
<path style="fill:#ED664C;" d="M352.844,340.788v5.7c0,12.6-10.2,22.8-22.8,22.8h-41.8h-193.1h-41.8c-12.6,0-22.8-10.2-22.8-22.8
	v-15.2v-41.6c0-10,4.4-19.6,12.1-26.1l11.9-11h156.8h122.2v0.4l8.7,9.3c6.8,6.5,10.7,15.5,10.7,24.9v53.6H352.844z M319.444,333.188
	v-37.2h-54.4v37.2H319.444z M118.344,333.188v-37.2h-54.4v37.2H118.344z"/>
<g>
	<path style="fill:#FDC75B;" d="M325.144,233.388l8.3,19.3h-122.2c0-23.2,19-42.2,42.2-42.2c10.9,11.2,24,20.4,38.9,26.9l12,5.2
		l13.5-5.8C320.344,235.588,322.744,234.488,325.144,233.388L325.144,233.388z"/>
	<rect x="265.044" y="295.988" style="fill:#FDC75B;" width="54.3" height="37.2"/>
	<path style="fill:#FDC75B;" d="M230.844,178.588c5.8,11.7,13.4,22.5,22.5,31.9c-23.2,0-42.2,19-42.2,42.2h-156.7l25.5-59.4
		c3.7-8.6,12.1-14.1,21.4-14.1h128.3L230.844,178.588z"/>
	<rect x="63.944" y="295.988" style="fill:#FDC75B;" width="54.3" height="37.2"/>
	<path style="fill:#FDC75B;" d="M95.144,369.688v21.3c0,12.6-10.2,22.8-22.8,22.8h-19c-12.6,0-22.8-10.2-22.8-22.8v-44.5
		c0,12.6,10.2,22.8,22.8,22.8h41.8V369.688z"/>
</g>
<path d="M127.944,295.888c0-5.5-4.5-10-10-10h-54c-5.5,0-10,4.5-10,10v37c0,5.5,4.5,10,10,10h54c5.5,0,10-4.5,10-10V295.888z
	 M73.944,305.888h34v17h-34V305.888z"/>
<path d="M328.944,295.888c0-5.5-4.5-10-10-10h-54c-5.5,0-10,4.5-10,10v37c0,5.5,4.5,10,10,10h54c5.5,0,10-4.5,10-10V295.888z
	 M274.944,305.888h34v17h-34V305.888z"/>
<path d="M156.944,341.888h69.6c5.5,0,10-4.5,10-10s-4.5-10-10-10h-69.6c-5.5,0-10,4.5-10,10S151.344,341.888,156.944,341.888z"/>
<path d="M156.944,313.888h69.6c5.5,0,10-4.5,10-10s-4.5-10-10-10h-69.6c-5.5,0-10,4.5-10,10S151.344,313.888,156.944,313.888z"/>
<path d="M397.844,48.488l-88.7-47.3c-3-1.6-6.5-1.6-9.5,0.1l-86.5,47.3c-3.2,1.8-5.3,5.1-5.3,8.8v67c0,15.3,3,30.6,8.1,44.6h-114.5
	c-13.3,0-25.4,8.1-30.6,20.3l-24.6,57.5l-10,9.5c-9.8,8.4-15.2,20.7-15.2,33.6v56.8v44.5c0,18.1,14.3,32.9,32.4,32.9h19
	c18.1,0,32.6-14.8,32.6-32.9v-12.3h173v12.1c0,18.1,15,32.9,33.1,32.9h19c18.1,0,32.9-14.8,32.9-32.9v-44.5v-59.4
	c0-12-5-23.6-13.7-31.9l-7-7.5l-4.3-10.1c17.2-10.2,31.8-24.2,42.9-40.9c14.6-21.9,22.1-47.4,22.1-73.8v-65.7
	C402.944,53.588,401.144,50.188,397.844,48.488z M249.544,220.988c9.2,8.8,19.4,15.9,30.7,21.9h-57.4
	C226.644,230.888,237.044,222.488,249.544,220.988z M89.144,197.188c2.1-4.9,6.9-8.3,12.3-8.3h123.8c2.9,5,6.1,10.3,9.6,15
	c-16.5,6.4-29.1,21-32.5,39h-132.7L89.144,197.188z M40.944,289.788c0-7.1,2.9-13.8,8.3-18.5c0.1-0.1,0.1-0.1,0.2-0.2l8.9-8.2h270.4
	l6.1,6.4c0.1,0.1,0.3,0.2,0.5,0.4c4.8,4.6,7.6,10.9,7.6,17.5v59.4c0,7.1-5.8,12.4-12.9,12.4h-276.7c-7.1,0-12.4-5.3-12.4-12.4
	V289.788z M84.944,390.988c0,7.1-5.5,12.9-12.6,12.9h-19c-7.1,0-12.4-5.8-12.4-12.9v-14.3c4,1.7,7.8,2.2,12.4,2.2h31.6V390.988z
	 M330.044,403.888h-19c-7.1,0-13.1-5.8-13.1-12.9v-12.1h32.1c4.5,0,8.9-0.5,12.9-2.2v14.3
	C342.944,398.088,337.144,403.888,330.044,403.888z M382.944,122.988c0,22.4-6.3,44.1-18.7,62.7c-10.9,16.4-25.9,29.8-43.6,38.6l0,0
	c-2.1,1.1-4.4,2.1-6.8,3.1l-9.5,4.1l-8-3.5c-13.5-5.9-25.5-14.2-35.7-24.7c-8.4-8.6-15.6-18.5-20.9-29.3
	c-7.6-15.4-11.8-32.7-11.8-49.9v-61l76.3-41.9l78.7,41.9V122.988z"/>
<path d="M276.244,117.788c-3.6-4.2-9.9-4.7-14.1-1.1c-4.2,3.6-4.7,9.9-1.1,14.1l23.3,27.3c0.1,0.1,0.2,0.2,0.3,0.4
	c0.1,0.1,0.2,0.3,0.4,0.4c0.1,0.1,0.3,0.3,0.5,0.4c0.1,0.1,0.3,0.2,0.4,0.3c0.2,0.1,0.3,0.2,0.5,0.3c0.1,0.1,0.3,0.2,0.4,0.3
	c0.2,0.1,0.4,0.2,0.5,0.3s0.3,0.2,0.4,0.2c0.2,0.1,0.4,0.2,0.6,0.2c0.1,0.1,0.3,0.1,0.4,0.2c0.2,0.1,0.4,0.1,0.6,0.2
	c0.1,0,0.3,0.1,0.4,0.1c0.2,0,0.4,0.1,0.6,0.1c0.1,0,0.3,0.1,0.4,0.1c0.3,0,0.5,0,0.8,0c0.1,0,0.2,0,0.3,0c0.3,0,0.6,0,0.9,0h0.1
	c0.2,0,0.5-0.1,0.7-0.1c0.1,0,0.2,0,0.3-0.1c0.2,0,0.4-0.1,0.6-0.1c0.1,0,0.2-0.1,0.3-0.1c0.2,0,0.3-0.1,0.5-0.2
	c0.1,0,0.2-0.1,0.4-0.1c0.2-0.1,0.3-0.1,0.4-0.2c0.1-0.1,0.2-0.1,0.4-0.2c0.1-0.1,0.3-0.1,0.4-0.2c0.1-0.1,0.2-0.1,0.4-0.2
	c0.1-0.1,0.3-0.2,0.4-0.3s0.2-0.2,0.3-0.3c0.1-0.1,0.2-0.1,0.3-0.2l54.4-44.2c4.3-3.5,4.9-9.8,1.4-14.1s-9.8-4.9-14.1-1.4
	l-46.8,38.1L276.244,117.788z"/>
<g>
</g>
<g>
</g>
<g>
</g>
<g>
</g>
<g>
</g>
<g>
</g>
<g>
</g>
<g>
</g>
<g>
</g>
<g>
</g>
<g>
</g>
<g>
</g>
<g>
</g>
<g>
</g>
<g>
</g>
</svg>
