<?xml version="1.0" encoding="iso-8859-1"?>
<!-- Generator: Adobe Illustrator 19.0.0, SVG Export Plug-In . SVG Version: 6.00 Build 0)  -->
<svg version="1.1" id="Capa_1" xmlns="http://www.w3.org/2000/svg" xmlns:xlink="http://www.w3.org/1999/xlink" x="0px" y="0px"
	 viewBox="0 0 392.1 392.1" style="enable-background:new 0 0 392.1 392.1;" xml:space="preserve">
<g>
	<path style="fill:#ED664C;" d="M381.8,179.75v38.2l-27.9,2.7c-2.7,12.6-7.8,24.2-14.6,34.7l18,21.8l-26.9,26.9l-21.8-18
		c-10.2,6.8-22.1,11.9-34.7,14.6l-2.7,28.3H231h-1v-58.8v-21.5h1.2c7,3.2,14.7,5,22.9,5c30.2,0,54.7-24.5,54.7-54.7
		s-24.5-54.7-54.7-54.7c-8.6,0-16.7,2-23.9,5.5H230v-60.8v-20.2h1h40.1l2.7,28.3c12.6,2.7,24.2,7.8,34.7,14.6l21.8-18l26.6,26.9
		l-18,21.8c6.8,10.2,11.9,22.1,14.6,34.7L381.8,179.75z"/>
	<path style="fill:#ED664C;" d="M230,248.55v21.5h-2.2h-87.7l-0.7-0.1c0.1-1.2,0.1-2.4,0.1-3.6c0-23.4-18.9-42.3-42.3-42.3
		s-42.3,18.9-42.3,42.3c0,1.2,0.1,2.4,0.2,3.6H41.4c-17.3,0-31.3-14-31.3-31.3v-26.5c0-14.1,9.4-26.5,23.1-30.2l72.5-19.8l43.3-56.9
		c7.9-10.4,20.2-16.5,33.2-16.5H229h0.9v60.6v99.2H230z"/>
</g>
<path style="fill:#FDC75B;" d="M55.2,270.15c-0.1-1.2-0.2-2.4-0.2-3.6c0-23.4,18.9-42.3,42.3-42.3s42.3,18.9,42.3,42.3
	c0,1.2,0,2.4-0.1,3.6c-1.8,21.7-20,38.7-42.1,38.7C75.2,308.75,57.1,291.75,55.2,270.15z"/>
<path d="M382.9,169.85l-21.3-2c-2.5-8.6-6-16.9-10.4-24.6l13.5-16.3c3.3-4,3-9.7-0.6-13.4l-26.6-26.9c-3.6-3.7-9.5-4-13.5-0.7
	l-16.3,13.5c-7.9-4.5-16.1-7.9-24.5-10.4l-2.1-21.2c-0.5-5.1-4.8-9-10-9H240v-29.9c0-5.5-4.5-10-10-10s-10,4.5-10,10v50h-37.8
	c-16.1,0-31.5,7.6-41.2,20.4l-41.3,54.2l-69.3,18.9c-17.8,4.9-30.4,21.3-30.4,39.9v26.5c0,22.8,18.7,41.2,41.5,41.2h5.4
	c2.5,10,7.7,18.1,15,24.9c9.7,8.9,22.3,13.9,35.4,13.9c13.2,0,25.8-5,35.5-13.9c7.3-6.7,12.5-14.8,15-24.8H220v83
	c0,5.5,4.5,10,10,10s10-4.5,10-10v-24h31.2c5.2,0,9.5-3.9,10-9.1l2.1-21.3c8.6-2.5,16.9-6,24.6-10.3l16.3,13.5c4,3.3,9.8,3,13.4-0.6
	l26.9-26.9c3.7-3.6,3.9-9.5,0.6-13.4l-13.5-16.3c4.5-7.9,7.9-16.1,10.4-24.5l21-2c5.1-0.5,9.1-4.8,9.1-10v-38.1
	C392,174.65,388,170.35,382.9,169.85z M240,156.45c4.5-1.5,9.2-2.3,14.1-2.3c24.7,0,44.7,20.1,44.7,44.7c0,24.7-20.1,44.7-44.7,44.7
	c-4.9,0-9.6-0.8-14.1-2.3V156.45z M129.5,269.25c-1.4,16.6-15.5,29.5-32.2,29.5c-16.6,0-30.7-13-32.2-29.5c0,0,0,0,0-0.1
	c-0.1-0.9-0.1-1.8-0.1-2.7c0-17.8,14.5-32.3,32.3-32.3s32.3,14.5,32.3,32.3C129.6,267.35,129.6,268.35,129.5,269.25z M149.2,259.95
	c-3.1-26-25.2-45.9-51.9-45.9s-48.7,19.9-51.8,45.9h-4c-11.8,0-21.5-9.4-21.5-21.2v-26.5c0-9.6,6.5-18,15.8-20.6l72.5-19.8
	c2.1-0.6,4-1.8,5.3-3.6l43.3-56.9c6-7.8,15.4-12.5,25.3-12.5H220v161h-70.8V259.95z M372,208.85l-19,1.8c-4.3,0.4-7.9,3.6-8.8,7.8
	c-2.4,10.8-6.8,21.4-13.3,31.4c-2.4,3.7-2.1,8.4,0.7,11.8l12.2,14.8l-14,14l-14.8-12.1c-3.4-2.8-8.3-3.1-11.9-0.6
	c-9.3,6.2-20.1,10.8-31.3,13.2c-4.2,0.9-7.4,4.5-7.8,8.8l-1.9,19.2H240v-56.9c4.6,1,9.3,1.5,14.1,1.5c35.7,0,64.7-29,64.7-64.7
	s-29-64.7-64.7-64.7c-4.8,0-9.5,0.5-14.1,1.5v-56.7h22.1l1.9,19.1c0.4,4.3,3.6,7.8,7.8,8.8c10.8,2.3,21.4,6.8,31.4,13.3
	c3.7,2.4,8.4,2.1,11.8-0.7l14.7-12.2l13.8,13.9l-12.3,14.8c-2.8,3.4-3.1,8.3-0.6,11.9c6.2,9.3,10.8,20.1,13.2,31.3
	c0.9,4.3,4.6,7.4,8.9,7.8l19.3,1.8V208.85z"/>
<g>
</g>
<g>
</g>
<g>
</g>
<g>
</g>
<g>
</g>
<g>
</g>
<g>
</g>
<g>
</g>
<g>
</g>
<g>
</g>
<g>
</g>
<g>
</g>
<g>
</g>
<g>
</g>
<g>
</g>
</svg>
