<?xml version="1.0" encoding="iso-8859-1"?>
<!-- Generator: Adobe Illustrator 19.0.0, SVG Export Plug-In . SVG Version: 6.00 Build 0)  -->
<svg version="1.1" id="Capa_1" xmlns="http://www.w3.org/2000/svg" xmlns:xlink="http://www.w3.org/1999/xlink" x="0px" y="0px"
	 viewBox="0 0 394 394" style="enable-background:new 0 0 394 394;" xml:space="preserve">
<g>
	<g>
		<path d="M384.9,170.9l-21.3-2c-2.5-8.6-5.9-16.8-10.4-24.6l13.5-16.3c3.3-4,3-9.7-0.6-13.4l-26.6-26.9c-3.6-3.7-9.5-4-13.5-0.7
			l-16.3,13.5c-7.7-4.4-16-7.9-24.5-10.4l-2-21.2c-0.5-5.1-4.8-9-10-9H240v-30c0-5.5-4.5-10-10-10s-10,4.5-10,10v50h-37.8
			c-16.1,0-31.4,7.6-41.2,20.4l-41.2,54.3l-69.3,18.9c-18,4.9-30.4,21.2-30.5,39.9v26.5c0.1,22.8,18.7,41.2,41.5,41.2h5.4
			c7.5,27.9,36.2,44.3,64.1,36.8c17.9-4.9,32-18.9,36.8-36.8H220v83c0,5.5,4.5,10,10,10s10-4.5,10-10v-24h33.2c5.2,0,9.5-3.9,10-9.1
			l2-21.3c8.6-2.5,16.8-5.9,24.6-10.3l16.3,13.5c4,3.3,9.8,3,13.4-0.6l26.9-26.9c3.6-3.6,3.9-9.5,0.6-13.5l-13.5-16.3
			c4.4-7.8,7.9-16,10.4-24.5l21-2c5.1-0.5,9.1-4.8,9.1-10v-38.3C394,175.7,390,171.4,384.9,170.9z M97.3,299.8
			c-17.8,0-32.3-14.5-32.3-32.3s14.5-32.3,32.3-32.3s32.3,14.5,32.3,32.3C129.6,285.3,115.2,299.8,97.3,299.8z M220,261h-70.8
			c-3.5-28.7-29.6-49-58.2-45.6c-23.8,2.9-42.6,21.7-45.6,45.6h-4c-11.8,0.1-21.4-9.4-21.5-21.2v-26.4c0.1-9.6,6.5-18,15.8-20.6
			l72.6-19.8c2.1-0.6,4-1.8,5.3-3.6l43.4-56.9c6-7.9,15.4-12.5,25.3-12.5H220V261z M240,157.5c23.4-7.8,48.7,4.9,56.5,28.4
			s-4.9,48.7-28.4,56.5c-9.1,3-19,3-28.1,0V157.5z M374,209.9L374,209.9l-19,1.8c-4.3,0.4-7.9,3.6-8.8,7.8
			c-2.5,11.2-7,21.8-13.3,31.4c-2.4,3.7-2.1,8.4,0.7,11.8l12.2,14.8l-14,14L317,279.4c-3.4-2.8-8.2-3.1-11.9-0.6
			c-9.5,6.3-20.1,10.8-31.3,13.2c-4.3,0.9-7.4,4.5-7.8,8.8l-1.8,19.2H240v-56.9c34.9,7.8,69.5-14.2,77.2-49.1
			c7.8-34.9-14.2-69.5-49.1-77.3c-9.3-2.1-18.9-2.1-28.1,0V80h24.1l1.9,19.1c0.4,4.3,3.6,7.9,7.8,8.8c11.2,2.5,21.8,7,31.4,13.2
			c3.7,2.4,8.4,2.1,11.8-0.7l14.7-12.2l13.8,13.9L333.2,137c-2.8,3.4-3.1,8.2-0.6,11.9c6.3,9.5,10.8,20.1,13.2,31.3
			c1,4.3,4.5,7.4,8.9,7.8l19.3,1.9V209.9z"/>
	</g>
</g>
<g>
</g>
<g>
</g>
<g>
</g>
<g>
</g>
<g>
</g>
<g>
</g>
<g>
</g>
<g>
</g>
<g>
</g>
<g>
</g>
<g>
</g>
<g>
</g>
<g>
</g>
<g>
</g>
<g>
</g>
</svg>
