<svg height="496pt" viewBox="0 0 496 496" width="496pt" xmlns="http://www.w3.org/2000/svg"><path d="m153.785156 185.785156c-16.625 16.628906-25.785156 38.71875-25.785156 62.214844s9.160156 45.585938 25.785156 62.214844c16.628906 16.625 38.71875 25.785156 62.214844 25.785156s45.585938-9.160156 62.214844-25.785156c16.625-16.628906 25.785156-38.71875 25.785156-62.214844s-9.160156-45.585938-25.785156-62.214844c-16.628906-16.625-38.71875-25.785156-62.214844-25.785156s-45.585938 9.160156-62.214844 25.785156zm133.742188 70.214844c-1.496094 13.550781-6.757813 26.265625-15.296875 36.910156l-34.628907-34.621094c.359376-.746093.664063-1.503906.941407-2.289062zm-143.054688-16c1.496094-13.550781 6.757813-26.265625 15.296875-36.910156l34.621094 34.621094c-.359375.746093-.664063 1.503906-.941406 2.289062zm65.824219 13.550781c-1.472656-1.445312-2.296875-3.414062-2.296875-5.550781s.824219-4.105469 2.449219-5.695312c1.445312-1.488282 3.414062-2.304688 5.550781-2.304688s4.105469.816406 5.703125 2.449219c1.472656 1.445312 2.296875 3.414062 2.296875 5.550781s-.824219 4.105469-2.457031 5.695312c-2.871094 2.976563-8.054688 3.121094-11.246094-.144531zm-2.296875-27.917969c-.753906.246094-1.480469.535157-2.199219.855469l-34.710937-34.710937c10.644531-8.546875 23.359375-13.808594 36.910156-15.304688zm-2.289062 43.96875c.746093.359376 1.503906.664063 2.289062.941407v48.984375c-13.550781-1.496094-26.265625-6.757813-36.910156-15.296875zm18.289062.949219c.785156-.277343 1.550781-.582031 2.296875-.941406l34.613281 34.613281c-10.644531 8.539063-23.359375 13.808594-36.910156 15.296875zm2.183594-44.046875c-.71875-.320312-1.441406-.609375-2.183594-.855468v-49.175782c13.550781 1.496094 26.265625 6.757813 36.910156 15.304688zm-81.710938 29.496094h48.96875c.277344.785156.582032 1.550781.941406 2.296875l-34.613281 34.613281c-8.539062-10.644531-13.800781-23.359375-15.296875-36.910156zm143.054688-16h-48.976563c-.277343-.785156-.582031-1.542969-.941406-2.296875l34.613281-34.613281c8.546875 10.644531 13.808594 23.359375 15.304688 36.910156zm0 0"/><path d="m480 0h-16c-8.824219 0-16 7.175781-16 16v.785156l-65.175781 6.6875c-8.320313.632813-14.824219 7.65625-14.824219 15.96875v.558594h-153.28125c-35.65625 0-70.902344 8.871094-102.488281 25.527344l-22.292969-14.917969c-9.59375-6.351563-22.042969-5.136719-30.3125 3.015625l-38.039062 38.039062c-7.984376 8.105469-9.234376 20.832032-2.953126 30.304688l12.480469 18.648438c-14.410156 22.917968-24.007812 48.054687-28.449219 74.894531-1.769531 10.871093-2.664062 21.808593-2.664062 32.488281 0 38.65625 10.367188 76.304688 29.816406 109.320312l-11.207031 16.742188c-6.351563 9.59375-5.136719 22.050781 3.015625 30.3125l38.039062 38.039062c4.703126 4.640626 10.792969 7.027344 16.9375 7.027344 4.597657 0 9.238282-1.335937 13.359376-4.066406l16.78125-11.191406c17.265624 10.183594 35.683593 17.800781 54.882812 22.703125l3.976562 19.816406c2.253907 11.175781 12.152344 19.296875 23.519532 19.296875h53.765625c11.371093 0 21.257812-8.121094 23.519531-19.304688l3.976562-19.832031c19.175782-5 37.503907-12.679687 54.632813-22.878906l17.046875 11.414063c4.105469 2.714843 8.722656 4.050781 13.3125 4.050781 6.160156 0 12.265625-2.402344 17-7.066407l38.039062-38.039062c8.113282-8.222656 9.328126-20.679688 2.960938-30.304688l-11.40625-17.03125c18.550781-31.328124 28.953125-66.710937 29.953125-102.761718.832031-28.359375-3.800781-55.933594-13.691406-82.0625l29.769531 3.039062v.777344c0 8.824219 7.175781 16 16 16h16c8.824219 0 16-7.175781 16-16v-160c0-8.824219-7.175781-16-16-16zm-447.0625 102.9375 37.957031-37.960938c2.785157-2.746093 6.976563-3.167968 10.175781-1.046874l15.707032 10.511718c-21.730469 13.910156-40.800782 31.589844-55.96875 51.910156l-8.863282-13.253906c-2.128906-3.226562-1.714843-7.417968.992188-10.160156zm48.175781 329.109375c-3.234375 2.136719-7.433593 1.714844-10.167969-.984375l-37.960937-37.957031c-2.746094-2.785157-3.167969-6.976563-1.039063-10.183594l7.230469-10.851563c14.351563 20.449219 32.3125 38.402344 52.746094 52.753907zm161.765625 47.953125h-53.757812c-3.785156 0-7.082032-2.71875-7.832032-6.464844l-2.570312-12.792968c12.289062 2.167968 24.800781 3.257812 37.410156 3.257812 4.488282 0 8.976563-.144531 13.480469-.414062 7.894531-.480469 15.816406-1.601563 23.710937-3l-2.59375 12.941406c-.765624 3.753906-4.0625 6.472656-7.847656 6.472656zm156.183594-86.9375-37.957031 37.960938c-2.785157 2.746093-6.984375 3.167968-10.167969 1.046874l-11.175781-7.46875c20.398437-14.402343 38.375-32.402343 52.8125-52.882812l7.472656 11.175781c2.136719 3.234375 1.722656 7.425781-.984375 10.167969zm16.859375-139.285156c-.960937 34.949218-11.386719 69.269531-30.152344 99.269531-16.304687 26.144531-38.65625 48.519531-64.679687 64.746094-18.417969 11.597656-38.402344 19.976562-59.417969 24.902343-10.9375 2.59375-22.054687 4.25-33.046875 4.921876-19.746094 1.214843-39.394531-.449219-58.367188-4.9375-21.042968-4.824219-41.105468-13.128907-59.65625-24.6875-26.121093-16.152344-48.457031-38.496094-64.617187-64.617188-19.609375-31.535156-29.984375-67.96875-29.984375-105.375 0-9.824219.832031-19.886719 2.457031-29.894531 4.359375-26.351563 14.0625-50.976563 28.863281-73.21875 16.742188-25.375 39.863282-46.933594 66.863282-62.328125 30.648437-17.375 65.410156-26.558594 100.535156-26.558594h121.28125v32h16v-32h16v80h-16v-32h-16v32h-77.144531c-13.550781-5.265625-27.953125-8-42.855469-8-66.167969 0-120 53.832031-120 120s53.832031 120 120 120 120-53.832031 120-120c0-38.65625-18.191406-73.769531-48.023438-96h80.023438v.558594c0 8.320312 6.503906 15.335937 14.609375 15.960937l17.589844 1.800781c11.25 26.472657 16.578125 54.511719 15.722656 83.457032zm-95.921875-5.777344c0 57.34375-46.65625 104-104 104s-104-46.65625-104-104 46.65625-104 104-104c13.449219 0 26.398438 2.496094 38.558594 7.433594 39.753906 15.839844 65.441406 53.742187 65.441406 96.566406zm64-95.441406v-104.558594l.246094-8.601562 63.753906-6.535157v126.28125zm96 23.441406h-16v-160h16zm0 0"/><path d="m352 248c0 13.230469 10.769531 24 24 24s24-10.769531 24-24-10.769531-24-24-24-24 10.769531-24 24zm32 0c0 4.40625-3.585938 8-8 8s-8-3.59375-8-8 3.585938-8 8-8 8 3.59375 8 8zm0 0"/><path d="m75.136719 156.441406-13.3125-8.875c-3.03125 4.546875-6 9.578125-8.832031 14.960938l14.167968 7.441406c2.566406-4.898438 5.246094-9.449219 7.976563-13.527344zm0 0"/><path d="m48 248c0-22.753906 4.472656-44.816406 13.289062-65.59375l-14.738281-6.246094c-9.65625 22.761719-14.550781 46.929688-14.550781 71.839844 0 101.464844 82.535156 184 184 184v-16c-92.632812 0-168-75.367188-168-168zm0 0"/></svg>