<?xml version="1.0" encoding="iso-8859-1"?>
<!-- Generator: Adobe Illustrator 19.0.0, SVG Export Plug-In . SVG Version: 6.00 Build 0)  -->
<svg xmlns="http://www.w3.org/2000/svg" xmlns:xlink="http://www.w3.org/1999/xlink" version="1.1" id="Layer_1" x="0px" y="0px" viewBox="0 0 513 513" style="enable-background:new 0 0 513 513;" xml:space="preserve" width="512" height="512">
<g id="XMLID_1323_">
	<g id="XMLID_760_">
		<path id="XMLID_1388_" d="M325,68.5c-100.309,0-182.517,78.968-187.733,178h-84.24c-5.523,0-10,4.478-10,10s4.477,10,10,10h84.24    c5.216,99.032,87.424,178,187.733,178c103.664,0,188-84.337,188-188S428.664,68.5,325,68.5z M417.481,396.681l-2.32-4.019    c-2.761-4.783-8.878-6.423-13.66-3.66c-4.783,2.761-6.422,8.877-3.66,13.66l2.337,4.048    c-19.819,9.959-41.865,16.108-65.177,17.484V419.5c0-5.522-4.477-10-10-10s-10,4.478-10,10v4.694    c-23.312-1.375-45.358-7.524-65.177-17.484l2.337-4.048c2.762-4.783,1.123-10.899-3.66-13.66c-4.783-2.76-10.898-1.122-13.66,3.66    l-2.32,4.019c-18.924-12.527-35.174-28.776-47.701-47.701l4.019-2.321c4.783-2.761,6.422-8.877,3.66-13.66    c-2.761-4.783-8.877-6.422-13.66-3.66l-4.048,2.337c-9.959-19.819-16.108-41.865-17.484-65.177H162c5.523,0,10-4.478,10-10    s-4.477-10-10-10h-4.694c1.375-23.312,7.524-45.358,17.484-65.177l4.048,2.337c1.575,0.909,3.294,1.342,4.991,1.342    c3.456,0,6.817-1.794,8.669-5.002c2.762-4.783,1.123-10.899-3.66-13.66l-4.019-2.321c12.527-18.924,28.776-35.174,47.701-47.701    l2.32,4.019c1.852,3.208,5.213,5.002,8.669,5.002c1.696,0,3.416-0.433,4.991-1.342c4.783-2.761,6.422-8.877,3.66-13.66    l-2.337-4.048C269.642,96.33,291.688,90.181,315,88.806V93.5c0,5.522,4.477,10,10,10s10-4.478,10-10v-4.694    c23.312,1.375,45.358,7.524,65.177,17.484l-2.337,4.048c-2.762,4.783-1.123,10.899,3.66,13.66    c1.575,0.909,3.294,1.342,4.991,1.342c3.456,0,6.817-1.794,8.669-5.002l2.32-4.019c18.924,12.527,35.174,28.776,47.701,47.701    l-4.019,2.321c-4.783,2.761-6.422,8.877-3.66,13.66c1.852,3.208,5.213,5.002,8.669,5.002c1.696,0,3.416-0.433,4.991-1.342    l4.048-2.337c9.959,19.819,16.108,41.865,17.484,65.177H488c-5.523,0-10,4.478-10,10s4.477,10,10,10h4.694    c-1.375,23.312-7.524,45.358-17.484,65.177l-4.048-2.337c-4.783-2.761-10.898-1.122-13.66,3.66    c-2.762,4.783-1.123,10.899,3.66,13.66l4.019,2.321C452.655,367.905,436.405,384.155,417.481,396.681z"/>
		<path id="XMLID_1439_" d="M325,143.176c-62.487,0-113.324,50.837-113.324,113.324S262.513,369.824,325,369.824    S438.324,318.987,438.324,256.5S387.487,143.176,325,143.176z M325,349.824c-51.459,0-93.324-41.865-93.324-93.324    s41.865-93.324,93.324-93.324s93.324,41.865,93.324,93.324S376.459,349.824,325,349.824z"/>
		<path id="XMLID_1442_" d="M325,219.8c-20.236,0-36.7,16.464-36.7,36.7s16.464,36.7,36.7,36.7s36.7-16.464,36.7-36.7    S345.236,219.8,325,219.8z M325,273.2c-9.208,0-16.7-7.491-16.7-16.7s7.492-16.7,16.7-16.7s16.7,7.491,16.7,16.7    S334.208,273.2,325,273.2z"/>
		<path id="XMLID_1443_" d="M264.07,249.43c-1.86-1.86-4.44-2.93-7.07-2.93c-2.63,0-5.21,1.069-7.07,2.93    c-1.86,1.86-2.93,4.44-2.93,7.07s1.07,5.21,2.93,7.069c1.86,1.86,4.44,2.931,7.07,2.931c2.63,0,5.21-1.07,7.07-2.931    c1.86-1.859,2.93-4.439,2.93-7.069S265.93,251.29,264.07,249.43z"/>
		<path id="XMLID_1444_" d="M383,256.5c0,2.63,1.07,5.21,2.93,7.069c1.86,1.86,4.44,2.931,7.07,2.931c2.63,0,5.21-1.07,7.07-2.931    c1.86-1.859,2.93-4.439,2.93-7.069s-1.07-5.21-2.93-7.07s-4.44-2.93-7.07-2.93c-2.63,0-5.21,1.069-7.07,2.93    C384.07,251.29,383,253.87,383,256.5z"/>
		<path id="XMLID_1445_" d="M325,198.5c2.63,0,5.21-1.07,7.07-2.931c1.86-1.859,2.93-4.439,2.93-7.069s-1.07-5.21-2.93-7.07    s-4.44-2.93-7.07-2.93c-2.63,0-5.21,1.069-7.07,2.93c-1.86,1.86-2.93,4.44-2.93,7.07s1.07,5.21,2.93,7.069    C319.79,197.43,322.37,198.5,325,198.5z"/>
		<path id="XMLID_1446_" d="M325,314.5c-2.63,0-5.21,1.069-7.07,2.93c-1.86,1.86-2.93,4.44-2.93,7.07s1.07,5.21,2.93,7.069    c1.86,1.86,4.44,2.931,7.07,2.931c2.63,0,5.21-1.07,7.07-2.931c1.86-1.859,2.93-4.439,2.93-7.069s-1.07-5.21-2.93-7.07    S327.63,314.5,325,314.5z"/>
		<path id="XMLID_1447_" d="M373.08,218.42c2.63,0,5.21-1.07,7.07-2.93c1.87-1.86,2.93-4.44,2.93-7.07c0-2.64-1.06-5.21-2.93-7.07    c-1.86-1.87-4.43-2.93-7.07-2.93c-2.63,0-5.21,1.06-7.07,2.93c-1.86,1.86-2.93,4.431-2.93,7.07c0,2.63,1.07,5.21,2.93,7.07    C367.88,217.35,370.45,218.42,373.08,218.42z"/>
		<path id="XMLID_1455_" d="M276.92,294.58c-2.64,0-5.21,1.069-7.07,2.93c-1.87,1.86-2.93,4.44-2.93,7.07    c0,2.64,1.06,5.21,2.93,7.069c1.86,1.87,4.43,2.931,7.07,2.931c2.63,0,5.21-1.061,7.07-2.931c1.86-1.859,2.93-4.439,2.93-7.069    s-1.07-5.21-2.93-7.07C282.13,295.649,279.55,294.58,276.92,294.58z"/>
		<path id="XMLID_1456_" d="M373.08,294.58c-2.63,0-5.21,1.069-7.07,2.93s-2.93,4.44-2.93,7.07c0,2.64,1.07,5.21,2.93,7.069    c1.86,1.87,4.44,2.931,7.07,2.931c2.64,0,5.21-1.061,7.07-2.931c1.87-1.859,2.93-4.43,2.93-7.069c0-2.63-1.06-5.21-2.93-7.07    C378.29,295.649,375.72,294.58,373.08,294.58z"/>
		<path id="XMLID_1457_" d="M276.92,198.42c-2.64,0-5.21,1.06-7.07,2.93c-1.87,1.86-2.93,4.431-2.93,7.07    c0,2.63,1.06,5.21,2.93,7.07c1.86,1.859,4.44,2.93,7.07,2.93s5.2-1.07,7.07-2.93c1.86-1.86,2.93-4.44,2.93-7.07    c0-2.64-1.07-5.21-2.93-7.07C282.13,199.479,279.55,198.42,276.92,198.42z"/>
		<path id="XMLID_1458_" d="M107.405,314.5H10c-5.523,0-10,4.478-10,10s4.477,10,10,10h97.405c5.523,0,10-4.478,10-10    S112.928,314.5,107.405,314.5z"/>
		<path id="XMLID_1459_" d="M50,198.5h63c5.523,0,10-4.478,10-10s-4.477-10-10-10H50c-5.523,0-10,4.478-10,10S44.477,198.5,50,198.5    z"/>
		<path id="XMLID_1460_" d="M10,198.5c2.63,0,5.21-1.07,7.07-2.931C18.93,193.71,20,191.13,20,188.5s-1.07-5.21-2.93-7.07    s-4.44-2.93-7.07-2.93s-5.21,1.069-7.07,2.93C1.07,183.29,0,185.87,0,188.5s1.07,5.21,2.93,7.069C4.79,197.43,7.37,198.5,10,198.5    z"/>
	</g>
</g>















</svg>
